<?xml version="1.0" standalone="no"?>
<!DOCTYPE svg PUBLIC "-//W3C//DTD SVG 20010904//EN"
 "http://www.w3.org/TR/2001/REC-SVG-20010904/DTD/svg10.dtd">
<svg version="1.0" xmlns="http://www.w3.org/2000/svg"
 width="2186.000000pt" height="1960.000000pt" viewBox="0 0 2186.000000 1960.000000"
 preserveAspectRatio="xMidYMid meet">

<g transform="translate(0.000000,1960.000000) scale(0.100000,-0.100000)"
fill="#000000" stroke="none">
<path d="M7520 9795 l0 -2285 3405 0 3405 0 0 2285 0 2285 -3405 0 -3405 0 0
-2285z m6628 353 c1 -972 -2 -1748 -7 -1748 -4 0 -316 308 -692 685 -376 377
-688 685 -694 685 -5 -1 -284 -275 -619 -610 -336 -336 -615 -610 -620 -610
-6 0 -408 397 -893 883 l-883 882 -1012 -1012 c-557 -557 -1016 -1013 -1020
-1013 -10 0 -11 3594 -1 3603 3 4 1453 6 3222 5 l3216 -3 3 -1747z"/>
<path d="M11765 11074 c-239 -36 -412 -220 -431 -457 -19 -237 148 -461 385
-517 81 -19 211 -8 291 24 268 108 386 427 254 687 -51 102 -166 200 -280 239
-56 19 -167 31 -219 24z"/>
</g>
</svg>
